<svg xmlns="http://www.w3.org/2000/svg" xmlns:xlink="http://www.w3.org/1999/xlink" width="110" height="33" viewBox="0 0 110 33" version="1.1">
  <title>
    brand
  </title>
  <g id="Page-1" stroke="none" stroke-width="1" fill="none" fill-rule="evenodd">
    <g id="brand">
      <g id="its_logo">
        <g id="Layer_1">
          <path d="M54.33 22.08C54.07 21.87 53.69 21.9 53.45 22.22 52.8 23.09 51.71 23.96 50.36 23.95 48.19 23.93 47.37 22.45 47.37 21 47.37 20.99 47.37 20.9 47.36 20.73L52.69 17.89 52.73 17.87C53.88 17.25 54.5 16.19 54.51 14.82 54.52 13.03 53.16 11.15 50.47 11.13L50.02 11.13C47.33 11.15 45.95 13.03 45.97 14.82L45.97 21.11C45.99 23.46 47.63 25.22 50.35 25.24 52.29 25.26 53.73 24.12 54.44 22.99 54.62 22.7 54.65 22.32 54.33 22.08L54.33 22.08ZM47.35 14.8C47.35 14.02 47.87 12.42 50.03 12.38 50.1 12.38 50.48 12.38 50.49 12.38 52.64 12.42 53.19 14.02 53.19 14.81 53.19 15.74 52.73 16.22 52.28 16.5L47.36 19.13C47.35 17.31 47.35 14.8 47.35 14.8L47.35 14.8Z" id="Shape" fill="#FFFFFF"/>
          <path d="M64.84 14.4C64.84 12.78 63.2 11.13 60.71 11.13 60.4 11.13 59.95 11.18 59.54 11.29 58.93 11.44 58.2 11.8 57.75 12.25 57.48 12.52 57.48 12.92 57.74 13.15 58 13.39 58.36 13.39 58.73 13.1 59.27 12.67 59.89 12.38 60.71 12.39 62.9 12.41 63.45 14.02 63.44 14.81 63.44 14.82 63.44 14.97 63.44 14.97 63.44 14.97 58.94 17.39 57.97 17.92 56.99 18.45 56.25 19.47 56.24 20.99 56.22 23.22 57.64 24.94 60.06 25.19 60.37 25.22 60.82 25.22 61.01 25.19 63.32 24.95 64.85 23.22 64.85 21.27 64.85 19.31 64.84 15.86 64.84 14.4L64.84 14.4ZM63.45 21L63.45 21C63.46 22.39 62.64 23.85 60.53 23.91 58.43 23.85 57.66 22.39 57.65 21 57.63 19.65 58.57 19.2 59.16 18.87 59.76 18.55 63.45 16.57 63.45 16.57L63.45 21 63.45 21Z" id="Shape" fill="#FFFFFF"/>
          <path d="M73.73 12.4C73.6 12.74 73.22 12.91 72.89 12.78 72.5 12.62 72.08 12.52 71.64 12.53 69.47 12.54 68.63 14.07 68.64 15.48L68.63 25.24 67.26 25.24 67.26 15.41 67.27 15.41C67.29 13.05 68.91 11.26 71.63 11.24 72.27 11.23 72.86 11.36 73.38 11.57 73.7 11.71 73.85 12.07 73.73 12.4L73.73 12.4Z" id="Shape" fill="#FFFFFF"/>
          <path d="M83.85 25.08L83.85 14.82C83.87 13.03 82.5 11.15 79.81 11.13 79.73 11.12 79.44 11.12 79.37 11.13 76.67 11.15 75.31 13.03 75.32 14.82L75.32 25.08 76.68 25.08 76.68 14.79 76.68 14.79C76.68 14.01 77.22 12.43 79.37 12.39 79.45 12.39 79.84 12.39 79.84 12.39 82 12.43 82.54 14.02 82.53 14.81L82.53 25.08 83.85 25.08 83.85 25.08Z" id="Shape" fill="#FFFFFF"/>
          <path d="M98.95 25.08L98.95 14.82C98.97 13.03 97.6 11.15 94.91 11.13 94.83 11.12 94.54 11.12 94.47 11.13 91.78 11.15 90.41 13.03 90.42 14.82L90.42 25.08 91.78 25.08 91.78 14.79 91.78 14.79C91.78 14.01 92.32 12.43 94.47 12.39 94.55 12.39 94.94 12.39 94.94 12.39 97.1 12.43 97.64 14.02 97.63 14.81L97.63 25.08 98.95 25.08 98.95 25.08Z" id="Shape" fill="#FFFFFF"/>
          <path d="M88.05 7.53C88.04 7.01 87.64 6.62 87.13 6.63 86.61 6.63 86.22 7.03 86.22 7.55 86.23 8.07 86.62 8.45 87.14 8.45 87.66 8.45 88.05 8.05 88.05 7.53L88.05 7.53Z" id="Shape" fill="#FFFFFF"/>
          <path d="M87.21 11.15C86.62 11.15 86.52 11.55 86.52 11.68L86.52 12.63 86.52 25.08 87.89 25.08 87.89 12.72 87.89 11.68C87.89 11.57 87.8 11.15 87.21 11.15L87.21 11.15Z" id="Shape" fill="#FFFFFF"/>
          <path d="M105.86 11.13C105.78 11.12 105.49 11.12 105.42 11.13 102.72 11.15 101.36 13.03 101.37 14.82L101.37 21.56C101.36 23.34 102.72 25.23 105.42 25.25L105.85 25.25C106.98 25.24 107.85 24.9 108.51 24.38L108.51 25.58 108.51 25.83C108.52 27.17 107.59 27.62 106.84 28.03 106.44 28.25 103.59 29.77 103.38 29.89 103.18 30 102.96 30.4 103.17 30.8 103.38 31.19 103.81 31.22 104.03 31.11 104.25 31 108.14 28.91 108.14 28.91L108.17 28.9C109.19 28.31 109.92 27.35 109.94 25.84L109.95 25.07 109.95 14.99C109.97 13.03 108.55 11.15 105.86 11.13L105.86 11.13ZM108.58 21.57C108.58 22.35 108.05 23.95 105.89 23.99 105.89 23.99 105.5 24 105.42 24 103.27 23.96 102.72 22.37 102.73 21.58L102.73 21.58 102.73 14.79 102.73 14.79C102.73 14.01 103.27 12.42 105.42 12.38 105.5 12.38 105.89 12.38 105.89 12.38 108.05 12.42 108.59 14.02 108.58 14.81L108.58 21.57 108.58 21.57Z" id="Shape" fill="#FFFFFF"/>
          <path d="M39.86 20.87L39.86 6.98C39.86 6.92 39.84 6.87 39.83 6.82L38.51 6.82C38.49 6.87 38.47 6.92 38.47 6.98L38.47 20.95 38.48 21.08C38.5 23.44 40.12 25.22 42.84 25.25 43.49 25.25 44.07 25.12 44.6 24.91 44.91 24.77 45.07 24.41 44.94 24.08 44.81 23.75 44.44 23.58 44.1 23.7 43.7 23.84 43.27 23.93 42.83 23.93 40.76 23.94 39.85 22.41 39.86 21L39.86 20.87 39.86 20.87Z" id="Shape" fill="#FFFFFF"/>
          <path d="M9.05 0.18C4.11 0.18 0.06 4.22 0.06 9.17L0.06 23.84C0.06 28.78 4.11 32.83 9.05 32.83L23.73 32.83C28.68 32.83 32.73 28.78 32.73 23.84L32.73 0.18 9.05 0.18 9.05 0.18Z" id="Shape" fill="#EE7203"/>
          <g id="Group" transform="translate(5.984991, 6.600000)" fill="#FFFFFF">
            <path d="M17.28 18.64C15.34 18.65 13.9 17.52 13.19 16.39 13.01 16.1 12.97 15.72 13.29 15.48 13.56 15.27 13.94 15.3 14.18 15.62 14.83 16.49 15.92 17.36 17.27 17.35 19.44 17.33 20.27 15.8 20.26 14.4 20.24 11.88 17.22 11.85 17.22 11.85 14.65 11.72 13.14 10.33 13.12 8.22 13.11 6.43 14.47 4.55 17.16 4.53 18.34 4.52 19.48 5.01 20.13 5.65 20.4 5.91 20.4 6.32 20.14 6.55 19.88 6.79 19.53 6.79 19.15 6.5 18.61 6.07 17.99 5.78 17.17 5.78 14.98 5.8 14.43 7.42 14.44 8.21 14.46 10.4 17.18 10.59 17.18 10.59 19.53 10.72 21.62 11.72 21.64 14.39 21.66 16.79 20.03 18.62 17.28 18.64L17.28 18.64Z" id="Shape"/>
            <path d="M10.54 17.09C10.15 17.26 9.73 17.35 9.29 17.35 7.12 17.33 6.28 15.8 6.29 14.4L6.29 5.9 10.4 5.9 10.42 5.9C10.76 5.9 11.04 5.61 11.04 5.27 11.04 4.92 10.76 4.64 10.42 4.64L10.4 4.64 6.29 4.64 6.29 0.38C6.29 0.32 6.27 0.27 6.25 0.22L4.94 0.22C4.93 0.27 4.91 0.32 4.91 0.38L4.91 14.47 4.91 14.49C4.93 16.85 6.56 18.62 9.28 18.64 9.92 18.65 10.51 18.51 11.03 18.31 11.35 18.16 11.5 17.8 11.38 17.48 11.25 17.14 10.87 16.97 10.54 17.09L10.54 17.09Z" id="Shape"/>
            <path d="M1.99 0.93C1.99 0.41 1.59 0.02 1.07 0.02 0.55 0.03 0.16 0.43 0.17 0.95 0.17 1.46 0.57 1.85 1.09 1.85 1.61 1.84 2 1.45 1.99 0.93L1.99 0.93Z" id="Shape"/>
            <path d="M1.1 4.55C0.53 4.55 0.44 4.92 0.44 5.08L0.44 6.03 0.44 18.48 1.76 18.48 1.76 6.12 1.76 5.08C1.76 4.95 1.68 4.55 1.1 4.55L1.1 4.55Z" id="Shape"/>
          </g>
        </g>
      </g>
    </g>
  </g>
</svg>